<?xml version="1.0" standalone="no"?>
<!DOCTYPE svg PUBLIC "-//W3C//DTD SVG 20010904//EN"
 "http://www.w3.org/TR/2001/REC-SVG-20010904/DTD/svg10.dtd">
<svg version="1.0" xmlns="http://www.w3.org/2000/svg"
 width="260.000000pt" height="260.000000pt" viewBox="0 0 260.000000 260.000000"
 preserveAspectRatio="xMidYMid meet">
<metadata>
Created by potrace 1.11, written by Peter Selinger 2001-2013
</metadata>
<g transform="translate(0.000000,260.000000) scale(0.100000,-0.100000)"
fill="#000000" stroke="none">
<path d="M0 2105 l0 -115 506 0 c360 0 518 -3 546 -12 53 -16 122 -78 142
-130 46 -114 -9 -250 -123 -301 -18 -8 -140 -14 -382 -17 l-357 -5 69 -95 c38
-52 97 -134 131 -182 35 -47 189 -262 343 -477 l280 -391 143 0 c78 0 142 1
142 3 0 2 -153 208 -341 458 l-340 454 168 6 c177 7 208 14 298 68 251 152
292 506 82 714 -59 59 -138 107 -203 124 -16 4 -271 9 -566 10 l-538 4 0 -116z"/>
<path d="M1384 2170 c29 -27 69 -79 90 -115 l39 -65 458 0 458 0 72 98 c40 53
79 105 87 115 14 16 -16 17 -621 17 l-636 0 53 -50z"/>
<path d="M1480 1474 c-17 -31 -57 -83 -89 -115 l-57 -59 286 0 285 1 80 105
c44 59 82 110 83 115 2 5 -117 9 -276 9 l-280 0 -32 -56z"/>
</g>
</svg>
